<svg width="90" height="64" viewBox="0 0 90 64" fill="none" xmlns="http://www.w3.org/2000/svg">
    <path
        d="M45 0C42.2504 0 40 2.25042 40 5C40 5.45712 40.0711 5.89102 40.1875 6.3125L12.7188 22H1C0.734792 22 0.480453 22.1054 0.292922 22.2929C0.105392 22.4805 2.65169e-05 22.7348 0 23V63C2.65169e-05 63.2652 0.105392 63.5195 0.292922 63.7071C0.480453 63.8946 0.734792 64 1 64H89C89.2652 64 89.5195 63.8946 89.7071 63.7071C89.8946 63.5195 90 63.2652 90 63V23C90 22.7348 89.8946 22.4805 89.7071 22.2929C89.5195 22.1054 89.2652 22 89 22H77.25L49.8125 6.3125C49.9289 5.89102 50 5.45712 50 5C50 2.25042 47.7496 0 45 0ZM45 2C46.6687 2 48 3.3313 48 5C48 6.66869 46.6687 8 45 8C43.3313 8 42 6.66869 42 5C42 3.3313 43.3313 2 45 2ZM41.0938 8.0625C42.0115 9.22401 43.4139 10 45 10C46.5861 10 47.9885 9.22401 48.9062 8.0625L73.25 22H16.75L41.0938 8.0625ZM2 24H13H13.0938H88V62H2V24ZM34.875 31.9688C34.6844 31.9873 34.5031 32.0602 34.3527 32.1788C34.2023 32.2973 34.0891 32.4566 34.0266 32.6376C33.9641 32.8186 33.9548 33.0138 34 33.1999C34.0451 33.386 34.1427 33.5552 34.2812 33.6875L43.5625 43L34.2812 52.2812C34.0966 52.4722 33.995 52.7285 33.9987 52.9941C34.0024 53.2598 34.1111 53.5131 34.301 53.6989C34.4909 53.8847 34.7466 53.9877 35.0122 53.9856C35.2779 53.9835 35.5319 53.8763 35.7188 53.6875L45 44.4062L54.2812 53.6875C54.4681 53.8763 54.7221 53.9835 54.9878 53.9856C55.2534 53.9877 55.5091 53.8847 55.699 53.6989C55.8889 53.5131 55.9976 53.2598 56.0013 52.9941C56.005 52.7285 55.9034 52.4722 55.7188 52.2812L46.4375 43L55.7188 33.6875C55.8658 33.5458 55.9659 33.3626 56.0058 33.1623C56.0456 32.9621 56.0232 32.7544 55.9415 32.5673C55.8598 32.3802 55.7229 32.2225 55.549 32.1155C55.3751 32.0085 55.1726 31.9573 54.9688 31.9688C54.7075 31.9791 54.4608 32.0912 54.2812 32.2812L45 41.5625L35.7188 32.2812C35.6123 32.1669 35.4805 32.079 35.334 32.0248C35.1875 31.9705 35.0303 31.9513 34.875 31.9688Z"
        fill="currentcolor" />
</svg>